<svg width="70" height="70" viewBox="0 0 70 70" fill="none" xmlns="http://www.w3.org/2000/svg">
<circle cx="35" cy="35" r="35" fill="#14968A"/>
<path d="M51.8 22.8421C53.018 22.8421 54.005 23.2842 54.782 24.1463C55.58 25.0526 56 26.0474 56 27.2632V51.5789C56 52.7947 55.58 53.7895 54.782 54.6958C54.005 55.5579 53.018 56 51.8 56H18.2C16.982 56 15.995 55.5579 15.218 54.6958C14.42 53.7895 14 52.7947 14 51.5789V27.2632C14 26.0474 14.42 25.0526 15.218 24.1463C15.995 23.2842 16.982 22.8421 18.2 22.8421H26.6V18.4211C26.6 17.1389 27.02 16.1 27.818 15.2821C28.595 14.4421 29.582 14 30.8 14H39.2C40.418 14 41.405 14.4421 42.182 15.2821C42.98 16.1 43.4 17.1389 43.4 18.4211V22.8421H51.8ZM18.2 27.2632V51.5789H51.8V27.2632H18.2ZM39.2 22.8421V18.4211H30.8V22.8421H39.2Z" fill="white"/>
<path d="M41.6313 29.4035C42.2391 28.6347 41.6663 27.5334 40.656 27.5334H32.8206C32.6085 27.5318 32.3995 27.5849 32.2138 27.6874C32.028 27.79 31.8718 27.9386 31.7601 28.119L25.8311 37.9844C25.3633 38.7614 25.9513 39.7309 26.8905 39.7309H30.891L27.1226 49.14C26.5778 50.33 28.0501 51.4185 29.0395 50.5575L44.3333 36.0862H36.3428L41.6313 29.4035Z" stroke="white" stroke-width="2.8" stroke-linecap="round" stroke-linejoin="round"/>
</svg>
